/* XPM */
static char *_91e7ded25324311b2479e04376d7ad56DPUQFETkjZTxM0Z[] = {
/* columns rows colors chars-per-pixel */
"16 16 2 1 ",
"  c #00000000",
"r c red",
/* pixels */
"                ",
"                ",
"                ",
"       rr       ",
"       rr       ",
"      rrrr      ",
"      rrrr      ",
"      rrrr      ",
"     rrrrrr     ",
"     rr  rr     ",
"    rr    rr    ",
"    rr    rr    ",
"                ",
"                ",
"                ",
"                "
};
