/* XPM */
static char *f6d5ae4e32e9497bf6fbb9cea310e07ccqg9g3jGh4kca1k6[] = {
/* columns rows colors chars-per-pixel */
"128 128 63 1 ",
"  c black",
". c #040404",
"X c #0B0B0B",
"o c gray6",
"O c gray7",
"+ c #161616",
"@ c #1B1B1B",
"# c gray11",
"$ c gray13",
"% c gray14",
"& c gray17",
"* c #2C2C2C",
"= c gray20",
"- c #353535",
"; c gray22",
": c gray24",
"> c #414141",
", c #464646",
"< c #494949",
"1 c gray30",
"2 c #505050",
"3 c gray34",
"4 c #5A5A5A",
"5 c gray37",
"6 c #606060",
"7 c #656565",
"8 c DimGray",
"9 c #6F6F6F",
"0 c #727272",
"q c #777777",
"w c #797979",
"e c #7C7C7C",
"r c #838383",
"t c #868686",
"y c gray54",
"u c gray55",
"i c gray57",
"p c #959595",
"a c gray60",
"s c gray61",
"d c #A2A2A2",
"f c #A4A4A4",
"g c #A9A9A9",
"h c #ACACAC",
"j c gray69",
"k c gray71",
"l c gray72",
"z c #BCBCBC",
"x c gray76",
"c c #C6C6C6",
"v c #CBCBCB",
"b c #CECECE",
"n c LightGray",
"m c #D7D7D7",
"M c gray85",
"N c #E1E1E1",
"B c gray90",
"V c gray92",
"C c gray93",
"Z c #F3F3F3",
"A c gray96",
"S c #F8F8F8",
"D c white",
/* pixels */
"                                                                                                                                ",
"                                                                                                                                ",
"                                                                                                                                ",
"                                                                                                                                ",
"                                                                                                                                ",
"                                                                                                                                ",
"                                                                                                                                ",
"                                                                                                                                ",
"                                                                                                                                ",
"                                                                                                                                ",
"                                                                                                                                ",
"                                                                                                                                ",
"                                                                                                                                ",
"                                                                                                                                ",
"                                                                                                                                ",
"                                                                                                                                ",
"                                                                                                                                ",
"                                                                                                                                ",
"                                                                                                                                ",
"                                                                                                                                ",
"                                                                                                                                ",
"                                                                                                                                ",
"                                                                                                                                ",
"                                                                                                                                ",
"                                                                                                                                ",
"                                                                                                                                ",
"                                                                                                                                ",
"                                                                                                                                ",
"                                                                                                                                ",
"                                                                                                                                ",
"                                                                                                                                ",
"                                                                                                                                ",
"                                                          *evBASAANvt:                                                          ",
"                                                       %tBDDDDDDDDDDDDC0                                                        ",
"                                                      qSDDDDDDDDDDDDDDDDd                                                       ",
"                                                    olDDDDDDDDDDDDDDDDDDDt                                                      ",
"                                                    xDDDDDDM9;oooo-rbDDDDD;                                                     ",
"                                                   0DDDDDa+          3SDDDm                                                     ",
"                                                   VDDDV:             qDDDD7                                                    ",
"                                                  eDDDD:               bDDDB                                                    ",
"                                                  nDDDk                >DDDDX                                                   ",
"                                                 @DDDD=                 kDDz                                                    ",
"                                                 %DDDA                   23                                                     ",
"                                                 XDDDD&                                                                         ",
"                                                  ZDDDb                                                                         ",
"                                                  eDDDDzX                                                                       ",
"                                                   MDDDDB:                                                                      ",
"                                                   OSDDDDDg%                                                                    ",
"                                                    ,NDDDDDZt                                                                   ",
"                                                     &zDDDDDDDg&                                                                ",
"                                                       0VDDDDDDDmu&                                                             ",
"                                                        +pDDDDDDDDDnq.                                                          ",
"                                                          &dDDDDDDDDDDh-                                                        ",
"                                                             rMDDDDDDDDDg&                                                      ",
"                                                               =pMDDDDDDDAu                                                     ",
"                                                                  ;gADDDDDDm,                                                   ",
"                                                                     wVDDDDDAq                                                  ",
"                                                                      OuDDDDDDi                                                 ",
"                                                                        %bDDDDDf                                                ",
"                                                                          iDDDDDf                                               ",
"                                                                           7DDDDDe                                              ",
"                                                                            <DDDDZ$                                             ",
"                                                                             2DDDDg                                             ",
"                                                                              aDDDA+                                            ",
"                                                                              .ZDDD5                                            ",
"                                                                               fDDDh                                            ",
"                                                                               7DDDc                                            ",
"                                                                               >DDDN                                            ",
"                                                                               &DDDB                                            ",
"                                                                               <DDDM                                            ",
"                                                                               iDDDk                                            ",
"                                                9cl:                           bDDDt                                            ",
"                                               @DDDZ9                         *DDDD>                                            ",
"                                               %DDDDDc=                       bDDDM                                             ",
"                                                zDDDDDDx;                    wDDDD0                                             ",
"                                                 aDDDDDDDb8.                2SDDDM                                              ",
"                                                  >NDDDDDDDDj1             3DDDDD;                                              ",
"                                                    qVDDDDDDDDCf:        @fDDDDDu                                               ",
"                                                      9mDDDDDDDDDSMfwrugMSDDDDDd                                                ",
"                                                        ,lSDDDDDDDDDDDDDDDDDDDs                                                 ",
"                                                           6cDDDDDDDDDDDDDDDZ6                                                  ",
"                                                             OwxSDDDDDDDDDZy@                                                   ",
"                                                                 @4sdlii5#                                                      ",
"                                                                                                                                ",
"                                                                                                                                ",
"                                                                                                                                ",
"                                                                                                                                ",
"                                                                                                                                ",
"                                                                                                                                ",
"                                                                                                                                ",
"                                                                                                                                ",
"                                                                                                                                ",
"                                                                                                                                ",
"                                                                                                                                ",
"                                                                                                                                ",
"                                                                                                                                ",
"                                                                                                                                ",
"                                                                                                                                ",
"                                                                                                                                ",
"                                                                                                                                ",
"                                                                                                                                ",
"                                                                                                                                ",
"                                                                                                                                ",
"                                                                                                                                ",
"                                                                                                                                ",
"                                                                                                                                ",
"                                                                                                                                ",
"                                                                                                                                ",
"                                                                                                                                ",
"                                                                                                                                ",
"                                                                                                                                ",
"                                                                                                                                ",
"                                                                                                                                ",
"                                                                                                                                ",
"                                                                                                                                ",
"                                                                                                                                ",
"                                                                                                                                ",
"                                                                                                                                ",
"                                                                                                                                ",
"                                                                                                                                ",
"                                                                                                                                ",
"                                                                                                                                ",
"                                                                                                                                ",
"                                                                                                                                ",
"                                                                                                                                ",
"                                                                                                                                ",
"                                                                                                                                ",
"                                                                                                                                "
};
