/* XPM */
static char *_91e7ded25324311b2479e04376d7ad56DPUQFETkjZTxM0Z[] = {
/* columns rows colors chars-per-pixel */
"32 32 40 1 ",
"  c red",
". c #FF0B0B",
"X c #FF0F0F",
"o c #FF1212",
"O c #FF1414",
"+ c #FF1B1B",
"@ c #FF1F1F",
"# c #FF2525",
"$ c #FF3333",
"% c #FF3434",
"& c #FF4040",
"* c #FF4D4D",
"= c #FF5050",
"- c #FF5454",
"; c #FF5858",
": c #FF6767",
"> c #FF6A6A",
", c #FF7777",
"< c #FF8383",
"1 c #FF8585",
"2 c #FF9292",
"3 c #FF9999",
"4 c #FF9F9F",
"5 c #FFA0A0",
"6 c #FFA4A4",
"7 c #FFAAAA",
"8 c #FFADAD",
"9 c #FFBABA",
"0 c #FFBCBC",
"q c #FFC7C7",
"w c #FFCBCB",
"e c #FFD2D2",
"r c #FFD6D6",
"t c #FFDEDE",
"y c #FFE3E3",
"u c #FFE4E4",
"i c #FFEDED",
"p c #FFF1F1",
"a c #FFF4F4",
"s c None",
/* pixels */
"ssssssssssssssssssssssssssssssss",
"ssssssssssssssssssssssssssssssss",
"ssssssssssssssssssssssssssssssss",
"ssssssssssssssssssssssssssssssss",
"ssssssssssssssssssssssssssssssss",
"ssssssssssssssssssssssssssssssss",
"ssssssssssssssr qsssssssssssssss",
"ssssssssssssss> ;sssssssssssssss",
"sssssssssssssu   essssssssssssss",
"sssssssssssss,   :ssssssssssssss",
"ssssssssssssp     ysssssssssssss",
"ssssssssssss1     ,sssssssssssss",
"ssssssssssss       issssssssssss",
"sssssssssss2       <ssssssssssss",
"sssssssssss         ssssssssssss",
"ssssssssss4         2sssssssssss",
"ssssssssss$         #sssssssssss",
"sssssssss8           5ssssssssss",
"sssssssss&           %ssssssssss",
"ssssssss9             8sssssssss",
"ssssssss*      6      &sssssssss",
"sssssssq    X4sss6+    0ssssssss",
"sssssss     ysssssi    =ssssssss",
"ssssssro .3sssssssss7@ +wsssssss",
"ssssss-@=tsssssssssssa:O&sssssss",
"ssssss  sssssssssssssss  sssssss",
"ssssssssssssssssssssssssssssssss",
"ssssssssssssssssssssssssssssssss",
"ssssssssssssssssssssssssssssssss",
"ssssssssssssssssssssssssssssssss",
"ssssssssssssssssssssssssssssssss",
"ssssssssssssssssssssssssssssssss"
};
