/* XPM */
static char *_10bad07ebec4791a498f7d9d4e0866dmHKfyh0hIASB1Hzk[] = {
/* columns rows colors chars-per-pixel */
"128 128 64 1 ",
"  c black",
". c #040404",
"X c #0B0B0B",
"o c gray6",
"O c #131313",
"+ c #151515",
"@ c #191919",
"# c gray11",
"$ c #222222",
"% c #272727",
"& c #282828",
"* c gray18",
"= c gray19",
"- c #353535",
"; c #3A3A3A",
": c #3E3E3E",
"> c gray26",
", c gray28",
"< c #4B4B4B",
"1 c gray30",
"2 c #505050",
"3 c gray33",
"4 c #5B5B5B",
"5 c gray37",
"6 c gray39",
"7 c #676767",
"8 c DimGray",
"9 c #6D6D6D",
"0 c gray44",
"q c #767676",
"w c #7B7B7B",
"e c #7C7C7C",
"r c #818181",
"t c gray53",
"y c #8B8B8B",
"u c #8D8D8D",
"i c #929292",
"p c #959595",
"a c #9B9B9B",
"s c #9D9D9D",
"d c #A0A0A0",
"f c #A7A7A7",
"g c gray67",
"h c #ACACAC",
"j c gray69",
"k c #B7B7B7",
"l c gray73",
"z c #BCBCBC",
"x c gray76",
"c c #C5C5C5",
"v c gray79",
"b c #CECECE",
"n c #D2D2D2",
"m c #D5D5D5",
"M c #D8D8D8",
"N c gainsboro",
"B c gray89",
"V c #E6E6E6",
"C c #E9E9E9",
"Z c gray93",
"A c gray94",
"S c gray97",
"D c #FBFBFB",
"F c white",
/* pixels */
"                                                                                                                                ",
"                                                                                                                                ",
"                                                                                                                                ",
"                                                                                                                                ",
"                                                                                                                                ",
"                                                                                                                                ",
"                                                                   +&                                                           ",
"                                                                  4FFnX                                                         ",
"                                                                 -CFFF1                                                         ",
"                                                                $MFFFF,                                                         ",
"                                                               .mFFFFh                                                          ",
"                                                               vFFFFb                                                           ",
"                                                              kFFFFM                                                            ",
"                                                             gFFFFB+                                                            ",
"                                                            sFFFFV-                                                             ",
"                                                           uFFFFA1                                                              ",
"                                                          qFFFFF2                                                               ",
"                                                         7FFFFF3                                                                ",
"                                                        ,AFFFF8                                                                 ",
"                                                       #VFFFFr                                                                  ",
"                                                       mFFFFs                                                                   ",
"                                                      zFFFFl                                                                    ",
"                                                     gFFFFM                                                                     ",
"                                                    yFFFFV#                                                                     ",
"                                                   6FFFFZ,                                                                      ",
"                                                  ;FFFFD4                                                                       ",
"                                                 %CFFFF8                                                                        ",
"                                                obFFFFp                                                                         ",
"                                            9aq kFFFFl                                                                          ",
"                                           4FFFcFFFFmO                                                                          ",
"                                           wFFFFFFFA$                                                                           ",
"                                           iFFFFFFF=                                                                            ",
"                                           tFFFFFF4                                                                             ",
"                                           wFFFFFy                                                                              ",
"                                           zFFFFz                                                                               ",
"                                          1DFFFD                                                                                ",
"                                         #CFFFFn                                                                                ",
"                                         mFFFFFz                                                                                ",
"                                        jFFFFFFz                                                                                ",
"                                       @FFFFFFFc                                                                                ",
"                                       oFFFAFFFl                                                                                ",
"                                        0nvsFFFv                                           %@                                   ",
"                                           3FFFz                  @gvy                    xFF8                                  ",
"                                           7FFFc                 &nFFF,                 ObFFFx                                  ",
"                                           7FFFc                ;BFFFF3                %nFFFFk                                  ",
"                                           3FFFz               <DFFFFV+               ;MFFFFB:                                  ",
"                                           8FFFv              eFFFFFM.               >CFFFFB&                                   ",
"                                           3FFFl            ojFFFFFxo               2FFFFFNX                                    ",
"                                           8FFFc           *BFFFFFf                0FFFFFb                                      ",
"                                           6FFFc          qFFFFFFr                uFFFFFk                                       ",
"                                           4FFFx        XjFFFFFV4                fFFFFFd                                        ",
"                                           6FFFb       $BFFFFFx&                xFFFFFy                                         ",
"                                           1FFFv      7FFFFFFy                &MFFFFD9                                          ",
"                                           1FFFM     sFFFFFV4                <VFFFFZ5                                           ",
"                                           ;FFFN    bFFFFFc%                2ZFFFFV;                                            ",
"                                           =FFFB  =CFFFFFp                 1FFFFFno                                             ",
"                                           *FFFV ,CFFFFZ8                 3FFFFFl                                               ",
"                                           *FFFV kFFFFM-                 5FFFFFh                                                ",
"                                           $FFFC zFFFvX                 9FFFFFd                                                 ",
"                                           %FFFZ 6FFl                  rFFFFFs                                                  ",
"                                           OFFFS  o@                  yFFFFFp                                                   ",
"                                           OFFFS                     sFFFFFy                                                    ",
"                                           XFFFF.                   fFFFFFe                                                     ",
"                                            DFFF                   jFFFFF7                                                      ",
"                                            DFFFO                 zFFFFF3                                                       ",
"                                            AFFF@                zFFFFF,                                                        ",
"                                            ZFFF@              .cFFFFA:                                                         ",
"                                            BFFF=             XxFFFFV,                                                          ",
"                                            NFFF1            .zFFFFV>                                                           ",
"                                            cFFF2            lFFFFZ-                                                            ",
"                                            xFFFq           kFFFFS%                                                             ",
"                                            fFFFt          hFFFFD%                                                              ",
"                                            aFFFu         gFFFFA=                                                               ",
"                                            yFFFk        dFFFFZ,                                                                ",
"                                            3FFFx       pFFFFA2                                                                 ",
"                                            >FFFV      tFFFFF2                                                                  ",
"                                            $FFFS     0FFFFF2                                                                   ",
"                                             SFFF$   5SFFFF6                                                                    ",
"                                             CFFF-  ;AFFFF0                                                                     ",
"                                             bFFF< .ZFFFFy                                                                      ",
"                                             cFFF0 nFFFFd                                                                       ",
"                                             aFFFugFFFFz                                                                        ",
"                                             iFFFbFFFFm                                                                         ",
"                                             9FFFFFFFC=                                                                         ",
"                                             1FFFFFFF6                                                                          ",
"                                             =FFFFFFy                                                                           ",
"                                              hFFFFx                                                                            ",
"                                             =FFFFV$                                                                            ",
"                                            +CFFFF4                                                                             ",
"                                            zFFFFt                                                                              ",
"                                           qFFFFl                                                                               ",
"                                          %FFFFN#                                                                               ",
"                                          cFFFF1                                                                                ",
"                                         qFFFFi                                                                                 ",
"                                        +FFFFM                                                                                  ",
"                                        =FFFD1                                                                                  ",
"                                        .BFFp                                                                                   ",
"                                         @52                                                                                    ",
"                                                                                                                                ",
"                                                                                                                                ",
"                                                                                                                                ",
"                                                                                                                                ",
"                                                                                                                                ",
"                                                                                                                                ",
"                                                                                                                                ",
"                                                                                                                                ",
"                                                                                                                                ",
"                                                                                                                                ",
"                                                                                                                                ",
"                                                                                                                                ",
"                                                                                                                                ",
"                                                                                                                                ",
"                                                                                                                                ",
"                                                                                                                                ",
"                                                                                                                                ",
"                                                                                                                                ",
"                                                                                                                                ",
"                                                                                                                                ",
"                                                                                                                                ",
"                                                                                                                                ",
"                                                                                                                                ",
"                                                                                                                                ",
"                                                                                                                                ",
"                                                                                                                                ",
"                                                                                                                                ",
"                                                                                                                                ",
"                                                                                                                                ",
"                                                                                                                                "
};
