/* XPM */
static char *_e8c5a6dd9e04294c8a613c0519acef0Nd4a87UsSeJupMPW[] = {
/* columns rows colors chars-per-pixel */
"128 128 63 1 ",
"  c black",
". c #060606",
"X c #0B0B0B",
"o c #0E0E0E",
"O c #131313",
"+ c gray9",
"@ c gray10",
"# c gray12",
"$ c #202020",
"% c #272727",
"& c gray16",
"* c #2D2D2D",
"= c #323232",
"- c #343434",
"; c gray22",
": c gray24",
"> c #434343",
", c gray28",
"< c #484848",
"1 c #4E4E4E",
"2 c #535353",
"3 c #565656",
"4 c #5A5A5A",
"5 c #5D5D5D",
"6 c gray38",
"7 c gray40",
"8 c #6A6A6A",
"9 c gray43",
"0 c gray44",
"q c #767676",
"w c #797979",
"e c #7C7C7C",
"r c #808080",
"t c #848484",
"y c #898989",
"u c #8D8D8D",
"i c #909090",
"p c gray59",
"a c gray60",
"s c gray62",
"d c #A2A2A2",
"f c #A4A4A4",
"g c #AAAAAA",
"h c #ACACAC",
"j c #B1B1B1",
"k c #B7B7B7",
"l c #B9B9B9",
"z c gray75",
"x c #C3C3C3",
"c c #C6C6C6",
"v c #C8C8C8",
"b c gray80",
"n c #D0D0D0",
"m c gray83",
"M c gray86",
"N c #E1E1E1",
"B c gray90",
"V c #E9E9E9",
"C c gray93",
"Z c #F3F3F3",
"A c gray96",
"S c #F8F8F8",
"D c white",
/* pixels */
"                                                                                                                                ",
"                                                                                                                                ",
"                                                                                                                                ",
"                                                                                                                                ",
"                                                                                                                                ",
"                                                                                                                                ",
"                                                                                                                                ",
"                                                                                                                                ",
"                                                                                                                                ",
"                                                                                                                                ",
"                                                                                                                                ",
"                                                                                                                                ",
"                                                                                                                                ",
"                                                                                                                                ",
"                                                                                                                                ",
"                                                                                                                                ",
"                                                                                                                                ",
"                                                                                                                                ",
"                                                                                                                                ",
"                                                                                                                                ",
"                                                                                                                                ",
"                                                                                                                                ",
"                                                                                                                                ",
"                                                                                                                                ",
"                                                                                                                                ",
"                                                                                                                                ",
"                                                                                                                                ",
"                                                                                                                                ",
"                                                                6MNw                                                            ",
"                                                                NDDDo                                                           ",
"                                                                ZDDD6                                                           ",
"                                                                kDDDf                                                           ",
"                                                                3DDDN                                                           ",
"                                                                #DDDZ                                                           ",
"                                                                 SDDD+                                                          ",
"                                   .dz0                          CDDD-                                                          ",
"                                   xDDD>                         bDDD4                                                          ",
"                                   VDDDV                         hDDDs                                                          ",
"                                   VDDDDt                        0DDDk                                                          ",
"                                   vDDDDDX                       4DDDM                                                          ",
"                                   vDDDDDa                       =DDDB                                                          ",
"                                   kDDDDDZ$                      @DDDA                                                          ",
"                                   gDDDDDDh                      XDDDA                                                          ",
"                                   dDDDDDDD,                     .DDDDX                                                         ",
"                                   eDDDSDDDv                      ADDDo                                                         ",
"                                   tDDDmDDDD4                     ZDDD#                                                         ",
"                                   4DDDxmDDDC.                    VDDD*                                                         ",
"                                   3DDDb4DDDDu                    BDDD-                                                         ",
"                                   :DDDN kDDDD                    MDDD:                                                         ",
"                                   %DDDC @SDDDd                   MDDD1                                                         ",
"                                   .DDDS  dDDDS1                  vDDD1                                                         ",
"                                   .DDDDX oDDDDM                  cDDD6                                                         ",
"                                    ZDDD$  0DDDDd                 kDDDr                                                         ",
"                                    BDDD-   xDDDD6                sDDDq                                                         ",
"                                    nDDD<   #DDDDB#               sDDDd                                                         ",
"                                    xDDDr    6DDDDk               qDDDs                                                         ",
"                                    yDDDa     hDDDD9              rDDDk                                                         ",
"                                    rDDDl     OVDDDC%             9DDDz                                                         ",
"                                    2DDDn      >DDDDk             5DDDz                                                         ",
"                                    ;DDDM       dDDDD4            7DDDb                                                         ",
"                                    &DDDV       OBDDDC@           2DDDc                                                         ",
"                                    $DDDZ        2DDDDg           3DDDm                                                         ",
"                                     DDDS         gDDDD<          ,DDDm                                                         ",
"                                    .DDDD         #VDDDVo         -DDDM                                                         ",
"                                     ADDD@         8DDDDg         =DDDB                                                         ",
"                                     ZDDD@          kDDDD2        &DDDV                                                         ",
"                                     NDDD=          #VDDDZX       +DDDC                                                         ",
"                                     MDDD<           8DDDDj       #DDDA                                                         ",
"                                     zDDD8            jDDDD3      XDDDS                                                         ",
"                                     hDDDe            XVDDDZ      .DDDS                                                         ",
"                                     yDDDk             6DDDDg      ADDD+                                                        ",
"                                     5DDDx              hDDDD3     CDDD$                                                        ",
"                                     :DDDB               ZDDDV     MDDD:                                                        ",
"                                     $DDDZ               6DDDDh    vDDD6                                                        ",
"                                      SDDDO               kDDDD7   fDDDp                                                        ",
"                                      ZDDD%                ZDDDV+  tDDDs                                                        ",
"                                      mDDD<                3DDDDl  9DDDv                                                        ",
"                                      lDDDi                 gDDDDr ,DDDn                                                        ",
"                                      0DDDx                 .VDDDA<;DDDN                                                        ",
"                                      <DDDB                  ;DDDDM&DDDC                                                        ",
"                                      @DDDA                   tDDDDuDDDD                                                        ",
"                                       ADDD#                   vDDDSSDDD.                                                       ",
"                                       BDDD:                   %DDDDDDDD%                                                       ",
"                                       zDDD9                    eDDDDDDD,                                                       ",
"                                       gDDDp                     bDDDDDDw                                                       ",
"                                       7DDDc                     -DDDDDDu                                                       ",
"                                       ,DDDn                      yDDDDDn                                                       ",
"                                       %DDDh                       nDDDDC                                                       ",
"                                        7js$                       ,DDDDD%                                                      ",
"                                                                    eDDDD=                                                      ",
"                                                                     kDDx                                                       ",
"                                                                      #&                                                        ",
"                                                                                                                                ",
"                                                                                                                                ",
"                                                                                                                                ",
"                                                                                                                                ",
"                                                                                                                                ",
"                                                                                                                                ",
"                                                                                                                                ",
"                                                                                                                                ",
"                                                                                                                                ",
"                                                                                                                                ",
"                                                                                                                                ",
"                                                                                                                                ",
"                                                                                                                                ",
"                                                                                                                                ",
"                                                                                                                                ",
"                                                                                                                                ",
"                                                                                                                                ",
"                                                                                                                                ",
"                                                                                                                                ",
"                                                                                                                                ",
"                                                                                                                                ",
"                                                                                                                                ",
"                                                                                                                                ",
"                                                                                                                                ",
"                                                                                                                                ",
"                                                                                                                                ",
"                                                                                                                                ",
"                                                                                                                                ",
"                                                                                                                                ",
"                                                                                                                                ",
"                                                                                                                                ",
"                                                                                                                                ",
"                                                                                                                                ",
"                                                                                                                                ",
"                                                                                                                                ",
"                                                                                                                                "
};
