/* XPM */
static char *_8ca5ac624d84b0befd3dda78201e328nhYSnpXVvliRyxph[] = {
/* columns rows colors chars-per-pixel */
"128 128 64 1 ",
"  c black",
". c #040404",
"X c #090909",
"o c #0C0C0C",
"O c gray7",
"+ c #151515",
"@ c #1B1B1B",
"# c gray12",
"$ c gray13",
"% c #252525",
"& c gray17",
"* c gray18",
"= c #323232",
"- c #343434",
"; c gray22",
": c #3F3F3F",
"> c gray25",
", c gray27",
"< c gray29",
"1 c gray30",
"2 c #505050",
"3 c #565656",
"4 c gray35",
"5 c gray36",
"6 c #626262",
"7 c #646464",
"8 c #6A6A6A",
"9 c #6C6C6C",
"0 c gray45",
"q c #777777",
"w c #7B7B7B",
"e c gray49",
"r c #838383",
"t c gray53",
"y c gray54",
"u c #8E8E8E",
"i c gray57",
"p c #959595",
"a c #989898",
"s c #9D9D9D",
"d c gray64",
"f c #A7A7A7",
"g c gray66",
"h c gray68",
"j c #B1B1B1",
"k c gray71",
"l c #BBBBBB",
"z c gray74",
"x c #C0C0C0",
"c c gray77",
"v c #CBCBCB",
"b c gray81",
"n c gray82",
"m c #D7D7D7",
"M c gray85",
"N c gainsboro",
"B c gray89",
"V c #E6E6E6",
"C c gray91",
"Z c gray93",
"A c #F1F1F1",
"S c #F6F6F6",
"D c #F9F9F9",
"F c white",
/* pixels */
"                                                                                                                                ",
"                                                                                                                                ",
"                                                                                                                                ",
"                                                                                                                                ",
"                                                                                                                                ",
"                                                                                                                                ",
"                                                                                                                                ",
"                                                                                                                                ",
"                                                                                                                                ",
"                                                                                                                                ",
"                                                                                                                                ",
"                                                                                                                                ",
"                                                                                                                                ",
"                                                                                                                                ",
"                                                                                                                                ",
"                                                                                                                                ",
"                                                                               O=X                                              ",
"                                                                              >FFZ&                                             ",
"                                                                              yFFF9                                             ",
"                                                                              vFFF0                                             ",
"                                                                              MFFF:                                             ",
"                                                                              SFFF@                                             ",
"                                                                              FFFFX                                             ",
"                                                                             #FFFS                                              ",
"                 txso                                                        $FFFZ                                              ",
"                2FFFp                                                        -FFFN                                              ",
"                6FFFF;                                                       1FFFM                                              ",
"                %DFFFk                                                       3FFFc                                              ",
"                 eFFFF*                                                      8FFFx                                              ",
"                  BFFFv                                                      tFFFj                                              ",
"                  0FFFF6                                                     wFFFa                                              ",
"                   NFFFC                                                     dFFFs                                              ",
"                   1FFFFp                                                    sFFFq                                              ",
"                    lFFFD>                                                   jFFFt                                              ",
"                    +FFFFv                                                   kFFFw                                              ",
"                     eFFFF8                                                  jFFF8                                              ",
"                      mFFFC+                                                 cFFF0                                              ",
"                      ,FFFFp                                                 xFFF2                                              ",
"                       hFFFF&                                                mFFF3                                              ",
"                       %AFFFk                                                NFFF:                                              ",
"                        tFFFF%                                               VFFF&                                              ",
"                         CFFFl                                               ZFFF#                                              ",
"                         eFFFF>                                              AFFF#                                              ",
"                          ZFFFz                                              SFFF                                               ",
"                          8FFFF>                                             FFFFX                                              ",
"                           NFFFc                                            XFFFF                                               ",
"                           9FFFF*                                           .FFFD                                               ",
"                            NFFFx                                           #FFFA                                               ",
"                            0FFFF;                                          OFFFA                                               ",
"                             CFFFl                                          %FFFZ                                               ",
"                             9FFFF,                                         %FFFC                                               ",
"                              BFFFx                                         &FFFV                                               ",
"                              8FFFF&                                        -FFFN                                               ",
"                               NFFFx                                        ,FFFN                                               ",
"                               0FFFD*                                       <FFFb                                               ",
"                                ZFFFh                                       6FFFv                                               ",
"                                qFFFF=                                      qFFFk                                               ",
"                                XCFFFg                                      wFFFg                                               ",
"                                 wFFFF+                                     aFFFf                                               ",
"                                  ZFFFp                                     yFFFe                                               ",
"                                  sFFFC                                     hFFFi                                               ",
"                                  @FFFF8                                    gFFFe                                               ",
"                                   jFFFN                                    hFFFe                                               ",
"                                   >FFFF,                                   kFFFr                                               ",
"                                    vFFFx                                   gFFF7                                               ",
"                                    6FFFD*                                  xFFFw                                               ",
"                                     ZFFFd                                  lFFF4                                               ",
"                                     wFFFF#                                 vFFF6                                               ",
"                                     oZFFFi                                 nFFF2                                               ",
"                                      pFFFA                                 mFFF>                                               ",
"                                      oFFFF9                                VFFF-                                               ",
"                                       lFFFm                                CFFF&                                               ",
"                                       >FFFF:                               DFFF.                                               ",
"                                        nFFFl                               FFFFX                                               ",
"                                        9FFFD                              #FFFA                                                ",
"                                        .DFFFq                             ;FFFC                                                ",
"                                         dFFFN             8i7             2FFFv                                                ",
"                                         -FFFF:           6FFF5            tFFFl                                                ",
"                                          vFFFz           MFFFA$           kFFFw                                                ",
"                                          7FFFD#         =FFFFFf           mFFF5                                                ",
"                                           AFFFu         aFFFFFF:          SFFF*                                                ",
"                                           tFFFA.        MFFFFFFZo        +FFFD                                                 ",
"                                           @SFFF5       %FFFFFFFFk        3FFFB                                                 ",
"                                            lFFFl       9FFFBlFFFFw       dFFFs                                                 ",
"                                            <FFFD@      pFFFh@BFFFF&      mFFFq                                                 ",
"                                             ZFFF0      bFFF7 3DFFFM     %FFFF=                                                 ",
"                                             iFFFm      NFFF;  rFFFFq    eFFFN                                                  ",
"                                             =FFFF&     SFFF+   vFFFA    bFFFd                                                  ",
"                                              BFFFp     FFFFX   =FFFFj  $FFFF=                                                  ",
"                                              qFFFS.   XFFFF     hFFFF< yFFFV                                                   ",
"                                              OSFFF4    FFFD      ZFFFM ZFFFu                                                   ",
"                                               zFFFk   XFFFF.     7FFFFlFFFFO                                                   ",
"                                               <FFFDO   DFFD       bFFFFFFFl                                                    ",
"                                                ZFFF9   FFFFX      -FFFFFFF%                                                    ",
"                                                sFFFn   DFFFo       sFFFFFh                                                     ",
"                                                ;FFFD%  SFFFo       oBFFFF-                                                     ",
"                                                 VFFFi  ZFFF&        :FFF0                                                      ",
"                                                 wFFFS. VFFF-         >91                                                       ",
"                                                 +SFFF0 mFFF>                                                                   ",
"                                                  lFFFN vFFF7                                                                   ",
"                                                  =FFFF9sFFFd                                                                   ",
"                                                   vFFFCtFFFx                                                                   ",
"                                                   :FFFFxFFFA                                                                   ",
"                                                    fFFFFFFFFX                                                                  ",
"                                                    $CFFFFFFF3                                                                  ",
"                                                     4FFFFFFFp                                                                  ",
"                                                      uFFFFFFd                                                                  ",
"                                                       jFFFFFn                                                                  ",
"                                                        vFFFFc                                                                  ",
"                                                        oCFFFy                                                                  ",
"                                                         O7t2                                                                   ",
"                                                                                                                                ",
"                                                                                                                                ",
"                                                                                                                                ",
"                                                                                                                                ",
"                                                                                                                                ",
"                                                                                                                                ",
"                                                                                                                                ",
"                                                                                                                                ",
"                                                                                                                                ",
"                                                                                                                                ",
"                                                                                                                                ",
"                                                                                                                                ",
"                                                                                                                                ",
"                                                                                                                                ",
"                                                                                                                                ",
"                                                                                                                                ",
"                                                                                                                                "
};
